<svg viewBox="0 0 100 100" role="img" aria-label="KC Cabinetry">
  <polygon points="50.00,3.00 57.61,11.75 67.99,6.58 71.67,17.57 83.23,16.77 82.43,28.33 93.42,32.01 88.25,42.39 97.00,50.00 88.25,57.61 93.42,67.99 82.43,71.67 83.23,83.23 71.67,82.43 67.99,93.42 57.61,88.25 50.00,97.00 42.39,88.25 32.01,93.42 28.33,82.43 16.77,83.23 17.57,71.67 6.58,67.99 11.75,57.61 3.00,50.00 11.75,42.39 6.58,32.01 17.57,28.33 16.77,16.77 28.33,17.57 32.01,6.58 42.39,11.75" fill="#BE9A45"/>
  <circle cx="50" cy="50" r="34" fill="#1B2940"/>
  <circle cx="50" cy="50" r="34" fill="none" stroke="#D8B968" stroke-width="2.4"/>
  <circle cx="50" cy="50" r="26" fill="none" stroke="#6E5A45" stroke-width="1.4" opacity="0.6"/>
  <g transform="rotate(38 50 50)">
    <rect x="46.5" y="34" width="7" height="34" rx="2" fill="#D8B968"/>
    <path d="M37 32 q13 -7 26 0 l0 7 q-13 -5 -26 0 z" fill="#E3DACB"/>
    <path d="M61 31 q5 1 6 6 q-1 4 -6 5 z" fill="#E3DACB"/>
  </g>
</svg>